# xmcd
#
# Track frame offsets:
#	150
#	13337
#	24357
#	35176
#	47818
#	60243
#	71661
#	82412
#	94646
#	109185
#	121052
#	130701
#	143243
#	155899
#	166310
#	180503
#
# Disc length: 2564 seconds
#
# Revision: 0
# Processed by: cddbd v1.5.2PL0 Copyright (c) Steve Scherf et al.
# Submitted via: audiograbber 1.83.01
#
DISCID=dc0a0210
DTITLE=Roy Orbison - Music Ages vol. 6
DYEAR=2007
DGENRE=Blues
TTITLE0=Oh, pretty woman
TTITLE1=Blue Bayou
TTITLE2=Only the lonely
TTITLE3=Borne on the wind
TTITLE4=It's over
TTITLE5=Dream baby
TTITLE6=Mean woman blues
TTITLE7=Here comes that song again
TTITLE8=Yo to amo Maria
TTITLE9=Shahdaroba
TTITLE10=Today's teardrops
TTITLE11=In dreams
TTITLE12=Blue angel
TTITLE13=Falling
TTITLE14=Distant drums
TTITLE15=Candy man
EXTD=
EXTT0=
EXTT1=
EXTT2=
EXTT3=
EXTT4=
EXTT5=
EXTT6=
EXTT7=
EXTT8=
EXTT9=
EXTT10=
EXTT11=
EXTT12=
EXTT13=
EXTT14=
EXTT15=
PLAYORDER=
